<svg xmlns="http://www.w3.org/2000/svg" width="200" height="150" viewBox="0 0 200 150">
  <defs>
    <radialGradient id="leafGrad" cx="50%" cy="30%" r="60%">
      <stop offset="0%" style="stop-color:#34d399;stop-opacity:1" />
      <stop offset="100%" style="stop-color:#047857;stop-opacity:1" />
    </radialGradient>
    <radialGradient id="spotGrad" cx="50%" cy="50%" r="40%">
      <stop offset="0%" style="stop-color:#fbbf24;stop-opacity:0.8" />
      <stop offset="80%" style="stop-color:#d97706;stop-opacity:0.9" />
      <stop offset="100%" style="stop-color:#92400e;stop-opacity:1" />
    </radialGradient>
  </defs>
  
  <!-- Leaf shape -->
  <path d="M100 20 C140 25, 170 60, 165 100 C160 125, 140 140, 100 145 C60 140, 40 125, 35 100 C30 60, 60 25, 100 20 Z" fill="url(#leafGrad)"/>
  
  <!-- Leaf veins -->
  <path d="M100 25 L100 140" stroke="#047857" stroke-width="2" opacity="0.6"/>
  <path d="M70 45 Q100 50, 130 45" stroke="#047857" stroke-width="1" opacity="0.4"/>
  <path d="M65 70 Q100 75, 135 70" stroke="#047857" stroke-width="1" opacity="0.4"/>
  <path d="M70 95 Q100 100, 130 95" stroke="#047857" stroke-width="1" opacity="0.4"/>
  
  <!-- Disease spots -->
  <circle cx="80" cy="60" r="8" fill="url(#spotGrad)"/>
  <circle cx="120" cy="80" r="6" fill="url(#spotGrad)"/>
  <circle cx="90" cy="100" r="5" fill="url(#spotGrad)"/>
  <circle cx="130" cy="110" r="4" fill="url(#spotGrad)"/>
  <circle cx="110" cy="50" r="3" fill="url(#spotGrad)"/>
  
  <!-- Border spots -->
  <circle cx="78" cy="58" r="2" fill="#92400e" opacity="0.8"/>
  <circle cx="118" cy="78" r="2" fill="#92400e" opacity="0.8"/>
  <circle cx="88" cy="98" r="1.5" fill="#92400e" opacity="0.8"/>
</svg>
