<svg xmlns="http://www.w3.org/2000/svg" width="200" height="150" viewBox="0 0 200 150">
  <defs>
    <radialGradient id="beanGrad" cx="50%" cy="30%" r="70%">
      <stop offset="0%" style="stop-color:#22c55e;stop-opacity:1" />
      <stop offset="100%" style="stop-color:#16a34a;stop-opacity:1" />
    </radialGradient>
    <radialGradient id="rustGrad" cx="50%" cy="50%" r="40%">
      <stop offset="0%" style="stop-color:#f97316;stop-opacity:0.9" />
      <stop offset="100%" style="stop-color:#ea580c;stop-opacity:1" />
    </radialGradient>
  </defs>
  
  <!-- Bean leaves -->
  <ellipse cx="70" cy="60" rx="25" ry="35" fill="url(#beanGrad)" transform="rotate(-20 70 60)"/>
  <ellipse cx="130" cy="70" rx="25" ry="35" fill="url(#beanGrad)" transform="rotate(15 130 70)"/>
  <ellipse cx="100" cy="100" rx="30" ry="40" fill="url(#beanGrad)" transform="rotate(-5 100 100)"/>
  
  <!-- Leaf veins -->
  <path d="M55 45 Q70 60 85 75" stroke="#16a34a" stroke-width="1.5" opacity="0.6"/>
  <path d="M115 55 Q130 70 145 85" stroke="#16a34a" stroke-width="1.5" opacity="0.6"/>
  <path d="M75 85 Q100 100 125 115" stroke="#16a34a" stroke-width="1.5" opacity="0.6"/>
  
  <!-- Rust pustules -->
  <circle cx="65" cy="50" r="3" fill="url(#rustGrad)"/>
  <circle cx="75" cy="65" r="4" fill="url(#rustGrad)"/>
  <circle cx="80" cy="75" r="2.5" fill="url(#rustGrad)"/>
  <circle cx="125" cy="60" r="3.5" fill="url(#rustGrad)"/>
  <circle cx="135" cy="75" r="3" fill="url(#rustGrad)"/>
  <circle cx="140" cy="85" r="2" fill="url(#rustGrad)"/>
  <circle cx="95" cy="90" r="4" fill="url(#rustGrad)"/>
  <circle cx="110" cy="105" r="3" fill="url(#rustGrad)"/>
  <circle cx="120" cy="115" r="2.5" fill="url(#rustGrad)"/>
  
  <!-- Smaller rust spots -->
  <circle cx="70" cy="70" r="1.5" fill="#ea580c" opacity="0.8"/>
  <circle cx="90" cy="85" r="1" fill="#ea580c" opacity="0.8"/>
  <circle cx="115" cy="95" r="1.5" fill="#ea580c" opacity="0.8"/>
  <circle cx="130" cy="80" r="1" fill="#ea580c" opacity="0.8"/>
</svg>
