<?xml version="1.0" encoding="UTF-8"?>
<svg version="1.1" xmlns="http://www.w3.org/2000/svg" width="54" height="54">
<path d="M0 0 C1.32 0 2.64 0 4 0 C7.37168754 8.45619235 7.91196008 20.66932115 4.375 29.1875 C3.2578125 31.1796875 3.2578125 31.1796875 2 33 C1.56429687 33.64195313 1.12859375 34.28390625 0.6796875 34.9453125 C-3.4918925 40.39344157 -8.60167202 42.86722401 -15 45 C-22.91188214 45.67049849 -27.71979331 43.46015501 -34 38.75 C-34.66 38.1725 -35.32 37.595 -36 37 C-36.81642254 38.26831693 -37.62799105 39.53975931 -38.4375 40.8125 C-38.88996094 41.52019531 -39.34242187 42.22789063 -39.80859375 42.95703125 C-41.14086339 45.08134552 -41.14086339 45.08134552 -42 48 C-43.65 48 -45.3 48 -47 48 C-47.77492417 45.23933264 -48.18355986 43.54111918 -47.25 40.7890625 C-42.24685635 32.12737005 -35.38378364 24.1979635 -25.48046875 21.25 C-20.9603746 20.27414759 -16.6375575 19.75591803 -12 20 C-12 19.34 -12 18.68 -12 18 C-23.72414843 19.89710185 -23.72414843 19.89710185 -34.36328125 25.01171875 C-36 26 -36 26 -38 26 C-37.60681915 18.52956384 -35.48004281 14.16367529 -29.9375 9.125 C-24.60414265 6.02821186 -18.68629892 7.05477539 -12.7265625 7.2578125 C-8.70847259 6.97983144 -6.40013027 6.10990226 -3 4 C-2.46375 3.278125 -1.9275 2.55625 -1.375 1.8125 C-0.92125 1.214375 -0.4675 0.61625 0 0 Z " fill="#2D8B56" transform="translate(48,3)"/>
</svg>
